<svg height="512" viewBox="0 0 58 58" width="512" xmlns="http://www.w3.org/2000/svg"><g id="035---Alien" fill="none" transform="translate(0 -1)"><path id="Shape" d="m50 25c-3.13 0-4.89 1.78-6.3 3.22s-2.7 2.78-5.64 2.78c0 .33-1.06.66-1.06 1v1l2.72 1.88c2.6683041-.4323934 5.0923146-1.8094301 6.83-3.88 1.35-1.37 2.06-2 3.45-2 2 0 4 2.47 4 8 0 7.6-3.25 9.31-3.89 18l2 1 2-1c.67-7.8 3.89-9.53 3.89-18 0-8.29-4-12-8-12z" fill="#464f5d"/><path id="Shape" d="m8 25c3.13 0 4.89 1.78 6.3 3.22s2.7 2.78 5.64 2.78c0 .33 1.56.66 1.56 1v1l-3.22 1.88c-2.6683041-.4323934-5.0923146-1.8094301-6.83-3.88-1.35-1.34-2.06-2-3.45-2-2 0-4 2.47-4 8 0 7.6 3.25 9.31 3.89 18l-2.08 1-1.93-1c-.66-7.8-3.88-9.53-3.88-18 0-8.29 4-12 8-12z" fill="#464f5d"/><path id="Shape" d="m37.79 3.71c-7 2.44-17.88 7.93-21.54 19.14-1.8093062-2.7524813-2.5655468-6.0650281-2.13-9.33 1.35-10.68 14.4-16.21 23.67-9.81z" fill="#81ccb8"/><path id="Shape" d="m41.68 23c-1.85 2.74-3.68 5.7-3.68 9v1h-18c.1192418-2.0095887-.2874648-4.0155482-1.18-5.82-.7413491-1.5087351-1.6006871-2.9565691-2.57-4.33 3.66-11.21 14.54-16.7 21.54-19.14 3.0770109 2.03958023 5.2163051 5.21940206 5.946058 8.8381511.7297529 3.618749-.009983 7.3791529-2.056058 10.4518489z" fill="#26b99a"/><path id="Shape" d="m29 19c2.43 0 1.59-.31 5.2 2.4.5036117.3777088.8.9704854.8 1.6v1c0-3.05 1.16-4.35 1.71-7-1.6568542 0-2.9999999-1.3431458-2.9999999-3s1.3431457-3 2.9999999-3c-.71-3.51-2.96-6-7.71-6s-7 2.49-7.71 6c1.6568542 0 2.9999999 1.3431458 2.9999999 3s-1.3431457 3-2.9999999 3c.55 2.66 1.71 4 1.71 7v-1c0-.6295146.2963883-1.2222912.8-1.6 3.59-2.69 2.76-2.4 5.2-2.4z" fill="#f9eab0"/><path id="Shape" d="m29 19c1.9 0 1.25-.29 4 2.4.569954.7377517.7990396 1.6831845.63 2.6 0-3.05.9-4.35 1.33-7 1-4 0-1.43 0-3s1 0 0-3c-.57-3.52-2.31-6-6-6s-5.43 2.49-6 6c-1 4 0 1.43 0 3s-1-1 0 3c.43 2.66 1.33 4 1.33 7v-1c.0063596-.6083229.2632016-1.1871218.71-1.6l2.07-2c.43-.46.73-.4 1.93-.4z" fill="#f5efca"/><circle id="Oval" cx="21" cy="14" fill="#fff" r="3"/><circle id="Oval" cx="37" cy="14" fill="#fff" r="3"/><circle id="Oval" cx="21" cy="14" fill="#56595e" r="1"/><circle id="Oval" cx="37" cy="14" fill="#56595e" r="1"/><path id="Shape" d="m45 47.83c-.89-.18-.79-.25-6.35-4.57-.2548911-.1987983-.5901565-.2621262-.9-.17-.4212814.107975-.7244761.4758512-.75.91v2c-1.9085181-1.2666997-4.1397108-1.9606943-6.43-2-.79 0-2.35 0-3.14 0-2.2902892.0393057-4.5214819.7333003-6.43 2v-2c-.0046758-.3787995-.2229992-.7224354-.5639246-.8876043-.3409255-.1651688-.7459135-.1235099-1.0460754.1076043l-5.22 4.05c-1.1131599.9315868-2.7626758.8206656-3.7410894-.2515685-.9784135-1.072234-.9382505-2.7249872.0910894-3.7484315l9.48-10.27c0 3.7 6.06 5.23 9.92 5 4.19-.23 7.54-2.07 8-4.39.049153-.1997473.0759839-.4043331.08-.61l9.48 10.34c.77929.8582771.9263427 2.1171919.3658424 3.1319686-.5605003 1.0147768-1.7044049 1.5606462-2.8458424 1.3580314z" fill="#2980ba"/><path id="Shape" d="m45 47.83c-.89-.18-.79-.25-6.35-4.57-.2938878-.2515041-.7064671-.3109607-1.0594101-.1526711s-.5829437.5059336-.5905899.8926711v4c-2.11-1.5-4.72-3.84-6.43-3.93-.79 0-2.35 0-3.14 0-1.71.09-4.32 1.43-6.43 2.93v-3c-.0046758-.3787995-.2229992-.7224354-.5639246-.8876043-.3409255-.1651688-.7459135-.1235099-1.0460754.1076043-5.78 4.48-5.54 4.42-6.34 4.56-.922457-.2428918-1.654101-.944893-1.9349151-1.8565217-.2808142-.9116286-.0709858-1.903637.5549151-2.6234783l8.89-10.3c0 2.58 3.29 4.7 7.52 5 .612681.0400047 1.227319.0400047 1.84 0 4.23-.27 7.52-2.39 7.52-5l8.89 10.34c.6257996.7148014.8416211 1.7004441.5717964 2.6113562-.2698248.9109121-.9876478 1.6199963-1.9017964 1.8786438z" fill="#3b97d3"/><path id="Shape" d="m37 54-2 1-2.53 2.41-2.47-8.6c-.1467427-.4790112-.5890159-.8060838-1.09-.8060838s-.9432573.3270726-1.09.8060838l-1.82 6.83-5-1.64v-8c2.3914809-1.4878547 5.1897029-2.1874102 8-2 2.8102971-.1874102 5.6085191.5121453 8 2z" fill="#2980ba"/><g fill="#84b5cb"><path id="Shape" d="m38 33c0 2.76-4 5-9 5s-9-2.24-9-5z"/><path id="Shape" d="m26.44 54-.91 3.41c-.3491328 1.0937353-1.4457466 1.7676108-2.5792307 1.5849522-1.1334842-.1826586-1.9628945-1.1669089-1.9507693-2.3149522v-2.68z"/><path id="Shape" d="m37 54v2.68c.0121252 1.1480433-.8172851 2.1322936-1.9507693 2.3149522-1.1334841.1826586-2.2300979-.4912169-2.5792307-1.5849522l-1-3.41z"/></g><path id="Shape" d="m38.5 28.93c-.4100053 1.3155725-.5793829 2.6943061-.5 4.07h-18c.0813738-1.3757575-.0880476-2.7548477-.5-4.07 7.29-.52 5.87-2.93 9.5-2.93s2.22 2.41 9.5 2.93z" fill="#7f8c8d"/><path id="Shape" d="m37 28.79c-.2447872 1.3906936-.381861 2.7982077-.41 4.21h-15.18c-.0336466-1.4114643-.1706803-2.8185656-.41-4.21 5.51-.69 4.65-2.79 8-2.79s2.48 2.1 8 2.79z" fill="#95a5a5"/><path id="Shape" d="m34.2 21.4c-3-2.23-3-2.4-3.87-2.4-3 0-3.21-.09-3.86.4l-2.67 2c-.5036117.3777088-.8.9704854-.8 1.6v5.42c3.34-.87 3.13-2.42 6-2.42s2.66 1.55 6 2.42v-5.42c0-.6295146-.2963883-1.2222912-.8-1.6z" fill="#bdc3c7"/><path id="Shape" d="m49 55h6c1.1045695 0 2 .8954305 2 2v1c0 .5522847-.4477153 1-1 1h-8c-.5522847 0-1-.4477153-1-1v-1c0-1.1045695.8954305-2 2-2z" fill="#95a5a5"/><path id="Shape" d="m2 55h8c.5522847 0 1 .4477153 1 1v1c0 1.1045695-.8954305 2-2 2h-6c-1.1045695 0-2-.8954305-2-2v-1c0-.5522847.44771525-1 1-1z" fill="#95a5a5" transform="matrix(-1 0 0 -1 12 114)"/></g></svg>